<svg width="24" height="24" viewBox="0 0 24 24" fill="none" xmlns="http://www.w3.org/2000/svg">
<path d="M16.8864 16H13.6605V7.27273H16.8821C17.7713 7.27273 18.5369 7.44744 19.179 7.79688C19.8239 8.14347 20.321 8.64347 20.6705 9.29688C21.0199 9.94744 21.1946 10.7259 21.1946 11.6321C21.1946 12.5412 21.0199 13.3224 20.6705 13.9759C20.3239 14.6293 19.8281 15.1307 19.1832 15.4801C18.5384 15.8267 17.7727 16 16.8864 16ZM15.7699 14.2017H16.8054C17.294 14.2017 17.7074 14.1193 18.0455 13.9545C18.3864 13.7869 18.6435 13.5156 18.8168 13.1406C18.9929 12.7628 19.081 12.2599 19.081 11.6321C19.081 11.0043 18.9929 10.5043 18.8168 10.1321C18.6406 9.7571 18.3807 9.48722 18.0369 9.32244C17.696 9.15483 17.2756 9.07102 16.7756 9.07102H15.7699V14.2017Z" fill="black"/>
<path d="M8.11364 16H11.3395V7.27273H8.1179C7.22869 7.27273 6.46307 7.44744 5.82102 7.79688C5.17614 8.14347 4.67898 8.64347 4.32955 9.29688C3.98011 9.94744 3.8054 10.7259 3.8054 11.6321C3.8054 12.5412 3.98011 13.3224 4.32955 13.9759C4.67614 14.6293 5.17188 15.1307 5.81676 15.4801C6.46165 15.8267 7.22727 16 8.11364 16ZM9.23011 14.2017H8.1946C7.70597 14.2017 7.29261 14.1193 6.95455 13.9545C6.61364 13.7869 6.35653 13.5156 6.18324 13.1406C6.0071 12.7628 5.91903 12.2599 5.91903 11.6321C5.91903 11.0043 6.0071 10.5043 6.18324 10.1321C6.35937 9.7571 6.61932 9.48722 6.96307 9.32244C7.30398 9.15483 7.72443 9.07102 8.22443 9.07102H9.23011V14.2017Z" fill="black"/>
<g filter="url(#filter0_d_1_7)">
<path d="M9.71733 15V7.72727H12.5014C13.027 7.72727 13.4638 7.81013 13.8118 7.97585C14.1622 8.1392 14.4238 8.36293 14.5966 8.64702C14.7718 8.93111 14.8594 9.25308 14.8594 9.61293C14.8594 9.90885 14.8026 10.1622 14.6889 10.3729C14.5753 10.5812 14.4226 10.7505 14.2308 10.8807C14.0391 11.0109 13.8248 11.1044 13.5881 11.1612V11.2322C13.8461 11.2464 14.0935 11.3258 14.3303 11.4702C14.5694 11.6122 14.7647 11.8134 14.9162 12.0739C15.0677 12.3343 15.1435 12.6491 15.1435 13.0185C15.1435 13.3949 15.0523 13.7334 14.87 14.0341C14.6877 14.3324 14.4131 14.5679 14.0462 14.7408C13.6792 14.9136 13.2176 15 12.6612 15H9.71733ZM11.0348 13.8991H12.4517C12.9299 13.8991 13.2744 13.808 13.4851 13.6257C13.6982 13.4411 13.8047 13.2043 13.8047 12.9155C13.8047 12.7 13.7514 12.5059 13.6449 12.3331C13.5384 12.1579 13.3868 12.0206 13.1903 11.9212C12.9938 11.8194 12.7595 11.7685 12.4872 11.7685H11.0348V13.8991ZM11.0348 10.8203H12.3381C12.5653 10.8203 12.7701 10.7789 12.9524 10.696C13.1347 10.6108 13.2779 10.4912 13.3821 10.3374C13.4886 10.1811 13.5419 9.99645 13.5419 9.78338C13.5419 9.50166 13.4425 9.26965 13.2436 9.08736C13.0471 8.90507 12.7547 8.81392 12.3665 8.81392H11.0348V10.8203Z" fill="white"/>
</g>
<defs>
<filter id="filter0_d_1_7" x="7.71733" y="5.72727" width="9.42614" height="11.2727" filterUnits="userSpaceOnUse" color-interpolation-filters="sRGB">
<feFlood flood-opacity="0" result="BackgroundImageFix"/>
<feColorMatrix in="SourceAlpha" type="matrix" values="0 0 0 0 0 0 0 0 0 0 0 0 0 0 0 0 0 0 127 0" result="hardAlpha"/>
<feOffset/>
<feGaussianBlur stdDeviation="1"/>
<feComposite in2="hardAlpha" operator="out"/>
<feColorMatrix type="matrix" values="0 0 0 0 0 0 0 0 0 0 0 0 0 0 0 0 0 0 0.5 0"/>
<feBlend mode="normal" in2="BackgroundImageFix" result="effect1_dropShadow_1_7"/>
<feBlend mode="normal" in="SourceGraphic" in2="effect1_dropShadow_1_7" result="shape"/>
</filter>
</defs>
</svg>
